<svg width="26" height="25" viewBox="0 0 26 25" fill="none" xmlns="http://www.w3.org/2000/svg">
<path d="M4.28125 19.4063C1.82031 19.4063 0.601562 18.1875 0.601562 15.7734L0.601562 3.91406C0.601562 1.5 1.82031 0.28125 4.28125 0.28125L16.0469 0.28125C18.4844 0.28125 19.7148 1.5 19.7148 3.91406L19.7148 5.70703L21.7305 5.70703C24.168 5.70703 25.3984 6.92578 25.3984 9.33984L25.3984 21.1992C25.3984 23.6133 24.168 24.832 21.7305 24.832L9.96484 24.832C7.50391 24.832 6.28516 23.6133 6.28516 21.1992L6.28516 19.4063L4.28125 19.4063ZM4.30469 17.5195L6.28516 17.5195L6.28516 9.33984C6.28516 6.91406 7.50391 5.70703 9.96484 5.70703L17.8281 5.70703L17.8281 4.01953C17.8281 2.80078 17.1719 2.16797 16.0117 2.16797L4.30469 2.16797C3.13281 2.16797 2.48828 2.80078 2.48828 4.01953L2.48828 15.668C2.48828 16.8867 3.13281 17.5195 4.30469 17.5195ZM16.457 20.1328C16.668 20.1328 16.832 19.9688 16.8906 19.7461C17.5586 16.1953 17.8867 15.5273 21.5781 15.0352C21.8125 15.0117 21.9766 14.8242 21.9766 14.5898C21.9766 14.3672 21.8125 14.1914 21.5781 14.1563C17.8984 13.6523 17.4062 12.9492 16.8906 9.46875C16.8437 9.23438 16.668 9.05859 16.457 9.05859C16.2227 9.05859 16.0586 9.22266 15.9883 9.45703C15.332 13.0195 15.0039 13.6523 11.3242 14.1563C11.0781 14.1914 10.9141 14.3672 10.9141 14.5898C10.9141 14.8242 11.0781 15 11.3242 15.0352C15.0156 15.4102 15.4844 16.1953 15.9883 19.7344C16.0352 19.9688 16.1992 20.1328 16.457 20.1328ZM11.6875 22.1016C11.8633 22.1016 11.9922 21.9961 12.0391 21.832C12.3555 20.0625 12.2383 19.9922 14.1602 19.6992C14.3242 19.6641 14.4531 19.5352 14.4531 19.3711C14.4531 19.1953 14.3242 19.0664 14.1602 19.043C12.25 18.7148 12.3555 18.6328 12.0391 16.9219C11.9922 16.7461 11.875 16.6172 11.6875 16.6172C11.5234 16.6172 11.4062 16.7344 11.3477 16.9219C11.0078 18.6328 11.1602 18.7148 9.23828 19.043C9.0625 19.0664 8.94531 19.1953 8.94531 19.3711C8.94531 19.5586 9.0625 19.6641 9.26172 19.6992C11.1602 19.9922 11.0078 20.0625 11.3477 21.7969C11.4062 21.9844 11.5117 22.1016 11.6875 22.1016Z" fill="url(#paint0_linear_1719_145)" style="mix-blend-mode:overlay"/>
<defs>
<linearGradient id="paint0_linear_1719_145" x1="13" y1="-2" x2="13" y2="27" gradientUnits="userSpaceOnUse">
<stop stop-color="white" stop-opacity="0.8"/>
<stop offset="1" stop-color="white" stop-opacity="0.3"/>
</linearGradient>
</defs>
</svg>
