<svg width="26" height="25" viewBox="0 0 26 25" fill="none" xmlns="http://www.w3.org/2000/svg">
<path d="M8.32422 7.01953C8.125 7.01953 7.96094 6.89063 7.92578 6.67969C7.52734 4.54688 7.58594 4.61719 5.45312 4.19531C5.24219 4.16016 5.10156 3.99609 5.10156 3.79688C5.10156 3.59766 5.24219 3.44531 5.45312 3.41016C7.58594 2.98828 7.52734 3.05859 7.92578 0.925781C7.96094 0.714844 8.125 0.585938 8.32422 0.585938C8.52344 0.585938 8.6875 0.714844 8.72266 0.925781C9.12109 3.05859 9.0625 2.98828 11.1953 3.41016C11.4062 3.44531 11.5469 3.59766 11.5469 3.79688C11.5469 3.99609 11.4062 4.16016 11.1953 4.19531C9.0625 4.61719 9.12109 4.54688 8.72266 6.67969C8.6875 6.89063 8.52344 7.01953 8.32422 7.01953ZM14.6406 16.5469C12.1211 16.5469 10.082 14.5195 10.082 11.9883C10.082 9.76172 11.6875 7.89844 13.8086 7.51172C13.8086 7.48828 13.8086 7.46484 13.8086 7.42969C13.8086 4.37109 16.293 1.88672 19.3398 1.88672C22.4102 1.88672 24.8945 4.37109 24.8945 7.42969C24.8945 10.4883 22.4102 12.9609 19.3398 12.9609C19.2578 12.9609 19.1758 12.9609 19.0937 12.9609C18.6484 15.0117 16.832 16.5469 14.6406 16.5469ZM15.5781 7.42969C15.5781 7.46484 15.5781 7.5 15.5781 7.53516C17.3828 7.91016 18.8008 9.35156 19.1289 11.1914C19.1992 11.1914 19.2695 11.1914 19.3398 11.1914C21.4258 11.1914 23.125 9.51563 23.125 7.42969C23.125 5.33203 21.4492 3.65625 19.3398 3.65625C17.2539 3.65625 15.5781 5.34375 15.5781 7.42969ZM3.73047 13.5117C2.01953 13.5117 0.625 12.1172 0.625 10.4063C0.625 8.71875 2.01953 7.32422 3.73047 7.32422C5.41797 7.32422 6.82422 8.71875 6.82422 10.4063C6.82422 12.1172 5.41797 13.5117 3.73047 13.5117ZM3.73047 11.7422C4.45703 11.7422 5.05469 11.1445 5.05469 10.4063C5.05469 9.69141 4.45703 9.09375 3.73047 9.09375C2.99219 9.09375 2.39453 9.69141 2.39453 10.4063C2.39453 11.1445 2.99219 11.7422 3.73047 11.7422ZM14.6406 14.7773C16.1875 14.7773 17.4297 13.5469 17.4297 11.9883C17.4297 10.4414 16.1875 9.19922 14.6406 9.19922C13.0937 9.19922 11.8516 10.4414 11.8516 11.9883C11.8516 13.5469 13.0937 14.7773 14.6406 14.7773ZM21.0508 24.4922C20.7812 24.4922 20.582 24.293 20.5586 24.0234C20.207 21.2109 20.1484 21.1641 17.2187 20.6836C16.9258 20.6367 16.7383 20.4492 16.7383 20.1914C16.7383 19.957 16.9141 19.7578 17.1719 19.6992C20.1484 19.1367 20.207 19.1719 20.5586 16.3594C20.582 16.0898 20.7812 15.8906 21.0508 15.8906C21.3086 15.8906 21.5195 16.0781 21.543 16.3477C21.9062 19.2305 21.9648 19.2773 24.9062 19.6992C25.1758 19.7461 25.3633 19.9336 25.3633 20.1914C25.3633 20.4375 25.1758 20.6367 24.918 20.6836C21.9297 21.2578 21.918 21.2344 21.543 24.0469C21.5078 24.3047 21.2969 24.4922 21.0508 24.4922ZM8.30078 24.1172C6.46094 24.1172 4.96094 22.6172 4.96094 20.7773C4.96094 18.9609 6.46094 17.4609 8.30078 17.4609C10.1172 17.4609 11.6172 18.9609 11.6172 20.7773C11.6172 22.6172 10.1172 24.1172 8.30078 24.1172ZM8.30078 22.3359C9.14453 22.3359 9.84766 21.6211 9.84766 20.7773C9.84766 19.9336 9.14453 19.2305 8.30078 19.2305C7.44531 19.2305 6.73047 19.9336 6.73047 20.7773C6.73047 21.6445 7.43359 22.3359 8.30078 22.3359Z" fill="url(#paint0_linear_1719_123)" style="mix-blend-mode:overlay"/>
<defs>
<linearGradient id="paint0_linear_1719_123" x1="13" y1="-2" x2="13" y2="27" gradientUnits="userSpaceOnUse">
<stop stop-color="white" stop-opacity="0.8"/>
<stop offset="1" stop-color="white" stop-opacity="0.3"/>
</linearGradient>
</defs>
</svg>
