<svg width="21" height="27" viewBox="0 0 21 27" fill="none" xmlns="http://www.w3.org/2000/svg">
<path d="M4.24219 26.1016C1.86328 26.1016 0.644531 24.8945 0.644531 22.4805L0.644531 4.66797C0.644531 2.21875 1.85156 0.988281 4.27734 0.988281L16.7227 0.988281C19.1484 0.988281 20.3555 2.23047 20.3555 4.66797L20.3555 18.1094C20.3555 19.2813 19.8164 19.8555 19.3711 20.3008C17.918 21.7656 18.2227 23.6758 19.6992 24.2617C20.0742 24.3906 20.3555 24.7539 20.3555 25.1641C20.3555 25.6914 19.9336 26.1016 19.418 26.1016L4.24219 26.1016ZM16.6289 2.875L5.44922 2.875L5.44922 18.8477L17.4492 18.8477C18.1055 18.8477 18.4687 18.4844 18.4687 17.8516L18.4687 4.70313C18.4687 3.53125 17.8477 2.875 16.6289 2.875ZM2.53125 19.3281C2.92969 19.082 3.375 18.9297 3.91406 18.8711L3.91406 2.91016C3 3.0625 2.53125 3.68359 2.53125 4.70313L2.53125 19.3281ZM7.54687 8.5C7.125 8.5 6.78516 8.14844 6.78516 7.72656C6.78516 7.30469 7.125 6.96484 7.54687 6.96484L16.3359 6.96484C16.7578 6.96484 17.0977 7.30469 17.0977 7.72656C17.0977 8.14844 16.7578 8.5 16.3359 8.5L7.54687 8.5ZM7.54687 11.7227C7.125 11.7227 6.78516 11.3711 6.78516 10.9492C6.78516 10.5273 7.125 10.1875 7.54687 10.1875L14.2148 10.1875C14.6367 10.1875 14.9766 10.5273 14.9766 10.9492C14.9766 11.3711 14.6367 11.7227 14.2148 11.7227L7.54687 11.7227ZM4.34766 24.2148L17.0508 24.2148C16.4297 23.207 16.3359 21.918 16.8867 20.6992C16.7695 20.7227 16.6289 20.7344 16.4766 20.7344L4.45312 20.7344C3.28125 20.7344 2.53125 21.4141 2.53125 22.4688C2.53125 23.582 3.16406 24.2148 4.34766 24.2148Z" fill="url(#paint0_linear_1719_167)" style="mix-blend-mode:overlay"/>
<defs>
<linearGradient id="paint0_linear_1719_167" x1="10.5" y1="-1" x2="10.5" y2="28" gradientUnits="userSpaceOnUse">
<stop stop-color="white" stop-opacity="0.8"/>
<stop offset="1" stop-color="white" stop-opacity="0.3"/>
</linearGradient>
</defs>
</svg>
