<svg width="31" height="31" viewBox="0 0 31 31" fill="none" xmlns="http://www.w3.org/2000/svg">
<path d="M26.9701 13.2088H26.0278V13.1603H15.4999V17.8393H22.1108C21.1464 20.5631 18.5548 22.5184 15.4999 22.5184C11.6239 22.5184 8.48131 19.3758 8.48131 15.4998C8.48131 11.6238 11.6239 8.48119 15.4999 8.48119C17.2891 8.48119 18.9168 9.15614 20.1562 10.2586L23.4648 6.94997C21.3756 5.00289 18.5811 3.80212 15.4999 3.80212C9.03987 3.80212 3.80225 9.03975 3.80225 15.4998C3.80225 21.9598 9.03987 27.1975 15.4999 27.1975C21.9599 27.1975 27.1976 21.9598 27.1976 15.4998C27.1976 14.7155 27.1169 13.9498 26.9701 13.2088Z" fill="#FFC107"/>
<path d="M5.15039 10.0551L8.99366 12.8737C10.0336 10.299 12.5521 8.48119 15.4993 8.48119C17.2885 8.48119 18.9162 9.15614 20.1556 10.2586L23.4643 6.94996C21.3751 5.00289 18.5805 3.80212 15.4993 3.80212C11.0062 3.80212 7.10975 6.33876 5.15039 10.0551Z" fill="#FF3D00"/>
<path d="M15.5003 27.1979C18.5218 27.1979 21.2672 26.0416 23.343 24.1612L19.7225 21.0976C18.5086 22.0207 17.0253 22.52 15.5003 22.5188C12.4577 22.5188 9.87428 20.5788 8.90103 17.8713L5.08643 20.8104C7.02239 24.5987 10.954 27.1979 15.5003 27.1979Z" fill="#4CAF50"/>
<path d="M26.9701 13.2088H26.0279V13.1603H15.5V17.8393H22.1109C21.6496 19.1357 20.8186 20.2685 19.7205 21.0977L19.7223 21.0966L23.3427 24.1602C23.0865 24.393 27.1977 21.3486 27.1977 15.4998C27.1977 14.7155 27.117 13.9499 26.9701 13.2088Z" fill="#1976D2"/>
</svg>
