<svg width="18" height="19" viewBox="0 0 18 19" fill="none" xmlns="http://www.w3.org/2000/svg">
<path fill-rule="evenodd" clip-rule="evenodd" d="M3.39802 0.924285C2.62068 0.139496 1.36035 0.139496 0.583008 0.924285C-0.194336 1.70907 -0.194336 2.98147 0.583008 3.76626L14.602 17.7471C15.3793 18.5319 16.6397 18.5319 17.417 17.7471C18.1943 16.9623 18.1943 15.6899 17.417 14.9051L3.39802 0.924285ZM4.3329 3.9996C4.13857 3.80341 3.82349 3.80341 3.62915 3.9996C3.43481 4.1958 3.43481 4.5139 3.62915 4.7101L13.4817 14.657C13.676 14.8532 13.9911 14.8532 14.1854 14.657C14.3798 14.4608 14.3798 14.1427 14.1854 13.9465L4.3329 3.9996Z" fill="url(#paint0_linear_1617_1927)"/>
<path d="M14.8975 0.409895C14.93 0.310959 15.07 0.31096 15.1025 0.409895L15.7842 2.48268C15.7949 2.51524 15.8205 2.54077 15.853 2.55148L17.9258 3.23318C18.0247 3.26572 18.0247 3.40567 17.9258 3.43821L15.853 4.11991C15.8205 4.13062 15.7949 4.15615 15.7842 4.18871L15.1025 6.26149C15.07 6.36043 14.93 6.36043 14.8975 6.26149L14.2158 4.18871C14.2051 4.15615 14.1795 4.13062 14.147 4.11991L12.0742 3.43821C11.9753 3.40567 11.9753 3.26572 12.0742 3.23318L14.147 2.55148C14.1795 2.54077 14.2051 2.51524 14.2158 2.48268L14.8975 0.409895Z" fill="url(#paint1_linear_1617_1927)"/>
<path d="M2.89749 12.4099C2.93002 12.311 3.06998 12.311 3.10252 12.4099L3.78422 14.4827C3.79492 14.5152 3.82046 14.5408 3.85301 14.5515L5.9258 15.2332C6.02473 15.2657 6.02473 15.4057 5.9258 15.4382L3.85301 16.1199C3.82046 16.1306 3.79492 16.1562 3.78422 16.1887L3.10252 18.2615C3.06998 18.3604 2.93002 18.3604 2.89749 18.2615L2.21579 16.1887C2.20508 16.1562 2.17954 16.1306 2.14699 16.1199L0.0742015 15.4382C-0.0247339 15.4057 -0.0247338 15.2657 0.0742017 15.2332L2.14699 14.5515C2.17954 14.5408 2.20508 14.5152 2.21579 14.4827L2.89749 12.4099Z" fill="url(#paint2_linear_1617_1927)"/>
<defs>
<linearGradient id="paint0_linear_1617_1927" x1="0" y1="0.335693" x2="19.2874" y2="21.0008" gradientUnits="userSpaceOnUse">
<stop stop-color="white"/>
<stop offset="1" stop-color="white" stop-opacity="0"/>
</linearGradient>
<linearGradient id="paint1_linear_1617_1927" x1="12" y1="0.335693" x2="18.4291" y2="7.22405" gradientUnits="userSpaceOnUse">
<stop stop-color="white"/>
<stop offset="1" stop-color="white" stop-opacity="0"/>
</linearGradient>
<linearGradient id="paint2_linear_1617_1927" x1="0" y1="12.3357" x2="6.42914" y2="19.2241" gradientUnits="userSpaceOnUse">
<stop stop-color="white"/>
<stop offset="1" stop-color="white" stop-opacity="0"/>
</linearGradient>
</defs>
</svg>
